{
    "asset" : {
        "generator" : "Khronos glTF Blender I/O v1.4.40",
        "version" : "2.0"
    },
    "scene" : 0,
    "scenes" : [
        {
            "name" : "Scene",
            "nodes" : [
                1,
                3,
                5,
                7,
                9,
                11
            ]
        }
    ],
    "nodes" : [
        {
            "mesh" : 0,
            "name" : "floor-colonly"
        },
        {
            "children" : [
                0
            ],
            "mesh" : 1,
            "name" : "floor"
        },
        {
            "mesh" : 2,
            "name" : "floor-border-colonly"
        },
        {
            "children" : [
                2
            ],
            "mesh" : 3,
            "name" : "floor-border",
            "translation" : [
                -4,
                0,
                0
            ]
        },
        {
            "mesh" : 4,
            "name" : "floor-corner-borders-colonly"
        },
        {
            "children" : [
                4
            ],
            "mesh" : 5,
            "name" : "floor-corner-borders",
            "translation" : [
                -8,
                0,
                0
            ]
        },
        {
            "mesh" : 6,
            "name" : "floor-corner-colonly"
        },
        {
            "children" : [
                6
            ],
            "mesh" : 7,
            "name" : "floor-corner",
            "translation" : [
                -12,
                0,
                0
            ]
        },
        {
            "mesh" : 8,
            "name" : "floor-ramp-colonly"
        },
        {
            "children" : [
                8
            ],
            "mesh" : 9,
            "name" : "floor-ramp",
            "translation" : [
                -16,
                0,
                0
            ]
        },
        {
            "mesh" : 10,
            "name" : "target-colonly"
        },
        {
            "children" : [
                10
            ],
            "mesh" : 11,
            "name" : "target",
            "translation" : [
                -20,
                0,
                0
            ]
        }
    ],
    "materials" : [
        {
            "doubleSided" : true,
            "name" : "LowpolyMaterial",
            "pbrMetallicRoughness" : {
                "baseColorTexture" : {
                    "index" : 0,
                    "texCoord" : 0
                },
                "metallicFactor" : 0,
                "roughnessFactor" : 0.5
            }
        }
    ],
    "meshes" : [
        {
            "name" : "Cube.009",
            "primitives" : [
                {
                    "attributes" : {
                        "POSITION" : 0,
                        "NORMAL" : 1,
                        "TEXCOORD_0" : 2
                    },
                    "indices" : 3,
                    "material" : 0
                }
            ]
        },
        {
            "name" : "Cube.007",
            "primitives" : [
                {
                    "attributes" : {
                        "POSITION" : 4,
                        "NORMAL" : 5,
                        "TEXCOORD_0" : 6
                    },
                    "indices" : 3,
                    "material" : 0
                }
            ]
        },
        {
            "name" : "Cube.012",
            "primitives" : [
                {
                    "attributes" : {
                        "POSITION" : 7,
                        "NORMAL" : 8,
                        "TEXCOORD_0" : 9
                    },
                    "indices" : 10,
                    "material" : 0
                }
            ]
        },
        {
            "name" : "Cube.010",
            "primitives" : [
                {
                    "attributes" : {
                        "POSITION" : 11,
                        "NORMAL" : 12,
                        "TEXCOORD_0" : 13
                    },
                    "indices" : 10,
                    "material" : 0
                }
            ]
        },
        {
            "name" : "Cube.013",
            "primitives" : [
                {
                    "attributes" : {
                        "POSITION" : 14,
                        "NORMAL" : 15,
                        "TEXCOORD_0" : 16
                    },
                    "indices" : 17,
                    "material" : 0
                }
            ]
        },
        {
            "name" : "Cube.011",
            "primitives" : [
                {
                    "attributes" : {
                        "POSITION" : 18,
                        "NORMAL" : 19,
                        "TEXCOORD_0" : 20
                    },
                    "indices" : 17,
                    "material" : 0
                }
            ]
        },
        {
            "name" : "Cube.016",
            "primitives" : [
                {
                    "attributes" : {
                        "POSITION" : 21,
                        "NORMAL" : 22,
                        "TEXCOORD_0" : 23
                    },
                    "indices" : 24,
                    "material" : 0
                }
            ]
        },
        {
            "name" : "Cube.015",
            "primitives" : [
                {
                    "attributes" : {
                        "POSITION" : 25,
                        "NORMAL" : 26,
                        "TEXCOORD_0" : 27
                    },
                    "indices" : 28,
                    "material" : 0
                }
            ]
        },
        {
            "name" : "Cube.001",
            "primitives" : [
                {
                    "attributes" : {
                        "POSITION" : 29,
                        "NORMAL" : 30,
                        "TEXCOORD_0" : 31
                    },
                    "indices" : 32,
                    "material" : 0
                }
            ]
        },
        {
            "name" : "Cube.019",
            "primitives" : [
                {
                    "attributes" : {
                        "POSITION" : 33,
                        "NORMAL" : 34,
                        "TEXCOORD_0" : 35
                    },
                    "indices" : 32,
                    "material" : 0
                }
            ]
        },
        {
            "name" : "Cube.027",
            "primitives" : [
                {
                    "attributes" : {
                        "POSITION" : 36,
                        "NORMAL" : 37,
                        "TEXCOORD_0" : 38
                    },
                    "indices" : 39,
                    "material" : 0
                }
            ]
        },
        {
            "name" : "Cube.021",
            "primitives" : [
                {
                    "attributes" : {
                        "POSITION" : 40,
                        "NORMAL" : 41,
                        "TEXCOORD_0" : 42
                    },
                    "indices" : 39,
                    "material" : 0
                }
            ]
        }
    ],
    "textures" : [
        {
            "sampler" : 0,
            "source" : 0
        }
    ],
    "images" : [
        {
            "bufferView" : 4,
            "mimeType" : "image/png",
            "name" : "lowpoly-texture"
        }
    ],
    "accessors" : [
        {
            "bufferView" : 0,
            "componentType" : 5126,
            "count" : 24,
            "max" : [
                2,
                0,
                2
            ],
            "min" : [
                -2,
                -1,
                -2
            ],
            "type" : "VEC3"
        },
        {
            "bufferView" : 1,
            "componentType" : 5126,
            "count" : 24,
            "type" : "VEC3"
        },
        {
            "bufferView" : 2,
            "componentType" : 5126,
            "count" : 24,
            "type" : "VEC2"
        },
        {
            "bufferView" : 3,
            "componentType" : 5123,
            "count" : 36,
            "type" : "SCALAR"
        },
        {
            "bufferView" : 5,
            "componentType" : 5126,
            "count" : 24,
            "max" : [
                2,
                0,
                2
            ],
            "min" : [
                -2,
                -1,
                -2
            ],
            "type" : "VEC3"
        },
        {
            "bufferView" : 6,
            "componentType" : 5126,
            "count" : 24,
            "type" : "VEC3"
        },
        {
            "bufferView" : 7,
            "componentType" : 5126,
            "count" : 24,
            "type" : "VEC2"
        },
        {
            "bufferView" : 8,
            "componentType" : 5126,
            "count" : 123,
            "max" : [
                2,
                1,
                2
            ],
            "min" : [
                -2,
                -1,
                -2
            ],
            "type" : "VEC3"
        },
        {
            "bufferView" : 9,
            "componentType" : 5126,
            "count" : 123,
            "type" : "VEC3"
        },
        {
            "bufferView" : 10,
            "componentType" : 5126,
            "count" : 123,
            "type" : "VEC2"
        },
        {
            "bufferView" : 11,
            "componentType" : 5123,
            "count" : 348,
            "type" : "SCALAR"
        },
        {
            "bufferView" : 12,
            "componentType" : 5126,
            "count" : 123,
            "max" : [
                2,
                1,
                2
            ],
            "min" : [
                -2,
                -1,
                -2
            ],
            "type" : "VEC3"
        },
        {
            "bufferView" : 13,
            "componentType" : 5126,
            "count" : 123,
            "type" : "VEC3"
        },
        {
            "bufferView" : 14,
            "componentType" : 5126,
            "count" : 123,
            "type" : "VEC2"
        },
        {
            "bufferView" : 15,
            "componentType" : 5126,
            "count" : 141,
            "max" : [
                2,
                1,
                2
            ],
            "min" : [
                -2,
                -1,
                -2
            ],
            "type" : "VEC3"
        },
        {
            "bufferView" : 16,
            "componentType" : 5126,
            "count" : 141,
            "type" : "VEC3"
        },
        {
            "bufferView" : 17,
            "componentType" : 5126,
            "count" : 141,
            "type" : "VEC2"
        },
        {
            "bufferView" : 18,
            "componentType" : 5123,
            "count" : 384,
            "type" : "SCALAR"
        },
        {
            "bufferView" : 19,
            "componentType" : 5126,
            "count" : 141,
            "max" : [
                2,
                1,
                2
            ],
            "min" : [
                -2,
                -1,
                -2
            ],
            "type" : "VEC3"
        },
        {
            "bufferView" : 20,
            "componentType" : 5126,
            "count" : 141,
            "type" : "VEC3"
        },
        {
            "bufferView" : 21,
            "componentType" : 5126,
            "count" : 141,
            "type" : "VEC2"
        },
        {
            "bufferView" : 22,
            "componentType" : 5126,
            "count" : 105,
            "max" : [
                2,
                1,
                2
            ],
            "min" : [
                -2,
                -1,
                -2
            ],
            "type" : "VEC3"
        },
        {
            "bufferView" : 23,
            "componentType" : 5126,
            "count" : 105,
            "type" : "VEC3"
        },
        {
            "bufferView" : 24,
            "componentType" : 5126,
            "count" : 105,
            "type" : "VEC2"
        },
        {
            "bufferView" : 25,
            "componentType" : 5123,
            "count" : 312,
            "type" : "SCALAR"
        },
        {
            "bufferView" : 26,
            "componentType" : 5126,
            "count" : 109,
            "max" : [
                2,
                1,
                2
            ],
            "min" : [
                -2,
                -1,
                -2
            ],
            "type" : "VEC3"
        },
        {
            "bufferView" : 27,
            "componentType" : 5126,
            "count" : 109,
            "type" : "VEC3"
        },
        {
            "bufferView" : 28,
            "componentType" : 5126,
            "count" : 109,
            "type" : "VEC2"
        },
        {
            "bufferView" : 29,
            "componentType" : 5123,
            "count" : 312,
            "type" : "SCALAR"
        },
        {
            "bufferView" : 30,
            "componentType" : 5126,
            "count" : 50,
            "max" : [
                2,
                4,
                2
            ],
            "min" : [
                -2,
                -1,
                -2
            ],
            "type" : "VEC3"
        },
        {
            "bufferView" : 31,
            "componentType" : 5126,
            "count" : 50,
            "type" : "VEC3"
        },
        {
            "bufferView" : 32,
            "componentType" : 5126,
            "count" : 50,
            "type" : "VEC2"
        },
        {
            "bufferView" : 33,
            "componentType" : 5123,
            "count" : 108,
            "type" : "SCALAR"
        },
        {
            "bufferView" : 34,
            "componentType" : 5126,
            "count" : 50,
            "max" : [
                2,
                4,
                2
            ],
            "min" : [
                -2,
                -1,
                -2
            ],
            "type" : "VEC3"
        },
        {
            "bufferView" : 35,
            "componentType" : 5126,
            "count" : 50,
            "type" : "VEC3"
        },
        {
            "bufferView" : 36,
            "componentType" : 5126,
            "count" : 50,
            "type" : "VEC2"
        },
        {
            "bufferView" : 37,
            "componentType" : 5126,
            "count" : 294,
            "max" : [
                2,
                4,
                2
            ],
            "min" : [
                -2,
                -2.5,
                -2
            ],
            "type" : "VEC3"
        },
        {
            "bufferView" : 38,
            "componentType" : 5126,
            "count" : 294,
            "type" : "VEC3"
        },
        {
            "bufferView" : 39,
            "componentType" : 5126,
            "count" : 294,
            "type" : "VEC2"
        },
        {
            "bufferView" : 40,
            "componentType" : 5123,
            "count" : 660,
            "type" : "SCALAR"
        },
        {
            "bufferView" : 41,
            "componentType" : 5126,
            "count" : 294,
            "max" : [
                2,
                4,
                2
            ],
            "min" : [
                -2,
                -2.5,
                -2
            ],
            "type" : "VEC3"
        },
        {
            "bufferView" : 42,
            "componentType" : 5126,
            "count" : 294,
            "type" : "VEC3"
        },
        {
            "bufferView" : 43,
            "componentType" : 5126,
            "count" : 294,
            "type" : "VEC2"
        }
    ],
    "bufferViews" : [
        {
            "buffer" : 0,
            "byteLength" : 288,
            "byteOffset" : 0
        },
        {
            "buffer" : 0,
            "byteLength" : 288,
            "byteOffset" : 288
        },
        {
            "buffer" : 0,
            "byteLength" : 192,
            "byteOffset" : 576
        },
        {
            "buffer" : 0,
            "byteLength" : 72,
            "byteOffset" : 768
        },
        {
            "buffer" : 0,
            "byteLength" : 60805,
            "byteOffset" : 840
        },
        {
            "buffer" : 0,
            "byteLength" : 288,
            "byteOffset" : 61648
        },
        {
            "buffer" : 0,
            "byteLength" : 288,
            "byteOffset" : 61936
        },
        {
            "buffer" : 0,
            "byteLength" : 192,
            "byteOffset" : 62224
        },
        {
            "buffer" : 0,
            "byteLength" : 1476,
            "byteOffset" : 62416
        },
        {
            "buffer" : 0,
            "byteLength" : 1476,
            "byteOffset" : 63892
        },
        {
            "buffer" : 0,
            "byteLength" : 984,
            "byteOffset" : 65368
        },
        {
            "buffer" : 0,
            "byteLength" : 696,
            "byteOffset" : 66352
        },
        {
            "buffer" : 0,
            "byteLength" : 1476,
            "byteOffset" : 67048
        },
        {
            "buffer" : 0,
            "byteLength" : 1476,
            "byteOffset" : 68524
        },
        {
            "buffer" : 0,
            "byteLength" : 984,
            "byteOffset" : 70000
        },
        {
            "buffer" : 0,
            "byteLength" : 1692,
            "byteOffset" : 70984
        },
        {
            "buffer" : 0,
            "byteLength" : 1692,
            "byteOffset" : 72676
        },
        {
            "buffer" : 0,
            "byteLength" : 1128,
            "byteOffset" : 74368
        },
        {
            "buffer" : 0,
            "byteLength" : 768,
            "byteOffset" : 75496
        },
        {
            "buffer" : 0,
            "byteLength" : 1692,
            "byteOffset" : 76264
        },
        {
            "buffer" : 0,
            "byteLength" : 1692,
            "byteOffset" : 77956
        },
        {
            "buffer" : 0,
            "byteLength" : 1128,
            "byteOffset" : 79648
        },
        {
            "buffer" : 0,
            "byteLength" : 1260,
            "byteOffset" : 80776
        },
        {
            "buffer" : 0,
            "byteLength" : 1260,
            "byteOffset" : 82036
        },
        {
            "buffer" : 0,
            "byteLength" : 840,
            "byteOffset" : 83296
        },
        {
            "buffer" : 0,
            "byteLength" : 624,
            "byteOffset" : 84136
        },
        {
            "buffer" : 0,
            "byteLength" : 1308,
            "byteOffset" : 84760
        },
        {
            "buffer" : 0,
            "byteLength" : 1308,
            "byteOffset" : 86068
        },
        {
            "buffer" : 0,
            "byteLength" : 872,
            "byteOffset" : 87376
        },
        {
            "buffer" : 0,
            "byteLength" : 624,
            "byteOffset" : 88248
        },
        {
            "buffer" : 0,
            "byteLength" : 600,
            "byteOffset" : 88872
        },
        {
            "buffer" : 0,
            "byteLength" : 600,
            "byteOffset" : 89472
        },
        {
            "buffer" : 0,
            "byteLength" : 400,
            "byteOffset" : 90072
        },
        {
            "buffer" : 0,
            "byteLength" : 216,
            "byteOffset" : 90472
        },
        {
            "buffer" : 0,
            "byteLength" : 600,
            "byteOffset" : 90688
        },
        {
            "buffer" : 0,
            "byteLength" : 600,
            "byteOffset" : 91288
        },
        {
            "buffer" : 0,
            "byteLength" : 400,
            "byteOffset" : 91888
        },
        {
            "buffer" : 0,
            "byteLength" : 3528,
            "byteOffset" : 92288
        },
        {
            "buffer" : 0,
            "byteLength" : 3528,
            "byteOffset" : 95816
        },
        {
            "buffer" : 0,
            "byteLength" : 2352,
            "byteOffset" : 99344
        },
        {
            "buffer" : 0,
            "byteLength" : 1320,
            "byteOffset" : 101696
        },
        {
            "buffer" : 0,
            "byteLength" : 3528,
            "byteOffset" : 103016
        },
        {
            "buffer" : 0,
            "byteLength" : 3528,
            "byteOffset" : 106544
        },
        {
            "buffer" : 0,
            "byteLength" : 2352,
            "byteOffset" : 110072
        }
    ],
    "samplers" : [
        {
            "magFilter" : 9729,
            "minFilter" : 9986
        }
    ],
    "buffers" : [
        {
            "byteLength" : 112424,
            "uri" : "data:application/octet-stream;base64,"
        }
    ]
}
